<?xml version="1.0" standalone="no"?>
<svg xmlns="http://www.w3.org/2000/svg" version="1.1" width="319" height="319">
	<!-- Created with https://api.qrserver.com (QR Code API, see goQR.me/api for information) -->
	<title>QR Code</title>
	<desc>0x7B3d964247Dd309D13FF702649827947633e27F3</desc>
	<rect style="fill:rgb(255, 255, 255);fill-opacity:1" x="0" y="0" width="319" height="319" />
	<g id="elements">
		<path style="fill:rgb(0, 0, 0)" d="M 0,0 l 11,0 0,11 -11,0 z M 11,0 l 11,0 0,11 -11,0 z M 22,0 l 11,0 0,11 -11,0 z M 33,0 l 11,0 0,11 -11,0 z M 44,0 l 11,0 0,11 -11,0 z M 55,0 l 11,0 0,11 -11,0 z M 66,0 l 11,0 0,11 -11,0 z M 110,0 l 11,0 0,11 -11,0 z M 132,0 l 11,0 0,11 -11,0 z M 165,0 l 11,0 0,11 -11,0 z M 176,0 l 11,0 0,11 -11,0 z M 187,0 l 11,0 0,11 -11,0 z M 198,0 l 11,0 0,11 -11,0 z M 209,0 l 11,0 0,11 -11,0 z M 242,0 l 11,0 0,11 -11,0 z M 253,0 l 11,0 0,11 -11,0 z M 264,0 l 11,0 0,11 -11,0 z M 275,0 l 11,0 0,11 -11,0 z M 286,0 l 11,0 0,11 -11,0 z M 297,0 l 11,0 0,11 -11,0 z M 308,0 l 11,0 0,11 -11,0 z M 0,11 l 11,0 0,11 -11,0 z M 66,11 l 11,0 0,11 -11,0 z M 88,11 l 11,0 0,11 -11,0 z M 110,11 l 11,0 0,11 -11,0 z M 143,11 l 11,0 0,11 -11,0 z M 154,11 l 11,0 0,11 -11,0 z M 165,11 l 11,0 0,11 -11,0 z M 198,11 l 11,0 0,11 -11,0 z M 220,11 l 11,0 0,11 -11,0 z M 242,11 l 11,0 0,11 -11,0 z M 308,11 l 11,0 0,11 -11,0 z M 0,22 l 11,0 0,11 -11,0 z M 22,22 l 11,0 0,11 -11,0 z M 33,22 l 11,0 0,11 -11,0 z M 44,22 l 11,0 0,11 -11,0 z M 66,22 l 11,0 0,11 -11,0 z M 132,22 l 11,0 0,11 -11,0 z M 143,22 l 11,0 0,11 -11,0 z M 176,22 l 11,0 0,11 -11,0 z M 198,22 l 11,0 0,11 -11,0 z M 242,22 l 11,0 0,11 -11,0 z M 264,22 l 11,0 0,11 -11,0 z M 275,22 l 11,0 0,11 -11,0 z M 286,22 l 11,0 0,11 -11,0 z M 308,22 l 11,0 0,11 -11,0 z M 0,33 l 11,0 0,11 -11,0 z M 22,33 l 11,0 0,11 -11,0 z M 33,33 l 11,0 0,11 -11,0 z M 44,33 l 11,0 0,11 -11,0 z M 66,33 l 11,0 0,11 -11,0 z M 88,33 l 11,0 0,11 -11,0 z M 99,33 l 11,0 0,11 -11,0 z M 110,33 l 11,0 0,11 -11,0 z M 132,33 l 11,0 0,11 -11,0 z M 143,33 l 11,0 0,11 -11,0 z M 154,33 l 11,0 0,11 -11,0 z M 165,33 l 11,0 0,11 -11,0 z M 209,33 l 11,0 0,11 -11,0 z M 242,33 l 11,0 0,11 -11,0 z M 264,33 l 11,0 0,11 -11,0 z M 275,33 l 11,0 0,11 -11,0 z M 286,33 l 11,0 0,11 -11,0 z M 308,33 l 11,0 0,11 -11,0 z M 0,44 l 11,0 0,11 -11,0 z M 22,44 l 11,0 0,11 -11,0 z M 33,44 l 11,0 0,11 -11,0 z M 44,44 l 11,0 0,11 -11,0 z M 66,44 l 11,0 0,11 -11,0 z M 99,44 l 11,0 0,11 -11,0 z M 143,44 l 11,0 0,11 -11,0 z M 187,44 l 11,0 0,11 -11,0 z M 198,44 l 11,0 0,11 -11,0 z M 209,44 l 11,0 0,11 -11,0 z M 242,44 l 11,0 0,11 -11,0 z M 264,44 l 11,0 0,11 -11,0 z M 275,44 l 11,0 0,11 -11,0 z M 286,44 l 11,0 0,11 -11,0 z M 308,44 l 11,0 0,11 -11,0 z M 0,55 l 11,0 0,11 -11,0 z M 66,55 l 11,0 0,11 -11,0 z M 88,55 l 11,0 0,11 -11,0 z M 99,55 l 11,0 0,11 -11,0 z M 121,55 l 11,0 0,11 -11,0 z M 132,55 l 11,0 0,11 -11,0 z M 187,55 l 11,0 0,11 -11,0 z M 198,55 l 11,0 0,11 -11,0 z M 209,55 l 11,0 0,11 -11,0 z M 242,55 l 11,0 0,11 -11,0 z M 308,55 l 11,0 0,11 -11,0 z M 0,66 l 11,0 0,11 -11,0 z M 11,66 l 11,0 0,11 -11,0 z M 22,66 l 11,0 0,11 -11,0 z M 33,66 l 11,0 0,11 -11,0 z M 44,66 l 11,0 0,11 -11,0 z M 55,66 l 11,0 0,11 -11,0 z M 66,66 l 11,0 0,11 -11,0 z M 88,66 l 11,0 0,11 -11,0 z M 110,66 l 11,0 0,11 -11,0 z M 132,66 l 11,0 0,11 -11,0 z M 154,66 l 11,0 0,11 -11,0 z M 176,66 l 11,0 0,11 -11,0 z M 198,66 l 11,0 0,11 -11,0 z M 220,66 l 11,0 0,11 -11,0 z M 242,66 l 11,0 0,11 -11,0 z M 253,66 l 11,0 0,11 -11,0 z M 264,66 l 11,0 0,11 -11,0 z M 275,66 l 11,0 0,11 -11,0 z M 286,66 l 11,0 0,11 -11,0 z M 297,66 l 11,0 0,11 -11,0 z M 308,66 l 11,0 0,11 -11,0 z M 99,77 l 11,0 0,11 -11,0 z M 110,77 l 11,0 0,11 -11,0 z M 121,77 l 11,0 0,11 -11,0 z M 143,77 l 11,0 0,11 -11,0 z M 165,77 l 11,0 0,11 -11,0 z M 176,77 l 11,0 0,11 -11,0 z M 0,88 l 11,0 0,11 -11,0 z M 11,88 l 11,0 0,11 -11,0 z M 22,88 l 11,0 0,11 -11,0 z M 33,88 l 11,0 0,11 -11,0 z M 44,88 l 11,0 0,11 -11,0 z M 66,88 l 11,0 0,11 -11,0 z M 77,88 l 11,0 0,11 -11,0 z M 88,88 l 11,0 0,11 -11,0 z M 99,88 l 11,0 0,11 -11,0 z M 121,88 l 11,0 0,11 -11,0 z M 154,88 l 11,0 0,11 -11,0 z M 198,88 l 11,0 0,11 -11,0 z M 231,88 l 11,0 0,11 -11,0 z M 253,88 l 11,0 0,11 -11,0 z M 275,88 l 11,0 0,11 -11,0 z M 297,88 l 11,0 0,11 -11,0 z M 0,99 l 11,0 0,11 -11,0 z M 11,99 l 11,0 0,11 -11,0 z M 22,99 l 11,0 0,11 -11,0 z M 33,99 l 11,0 0,11 -11,0 z M 88,99 l 11,0 0,11 -11,0 z M 110,99 l 11,0 0,11 -11,0 z M 132,99 l 11,0 0,11 -11,0 z M 187,99 l 11,0 0,11 -11,0 z M 242,99 l 11,0 0,11 -11,0 z M 297,99 l 11,0 0,11 -11,0 z M 0,110 l 11,0 0,11 -11,0 z M 11,110 l 11,0 0,11 -11,0 z M 33,110 l 11,0 0,11 -11,0 z M 44,110 l 11,0 0,11 -11,0 z M 55,110 l 11,0 0,11 -11,0 z M 66,110 l 11,0 0,11 -11,0 z M 77,110 l 11,0 0,11 -11,0 z M 88,110 l 11,0 0,11 -11,0 z M 110,110 l 11,0 0,11 -11,0 z M 143,110 l 11,0 0,11 -11,0 z M 154,110 l 11,0 0,11 -11,0 z M 187,110 l 11,0 0,11 -11,0 z M 209,110 l 11,0 0,11 -11,0 z M 242,110 l 11,0 0,11 -11,0 z M 264,110 l 11,0 0,11 -11,0 z M 286,110 l 11,0 0,11 -11,0 z M 0,121 l 11,0 0,11 -11,0 z M 44,121 l 11,0 0,11 -11,0 z M 77,121 l 11,0 0,11 -11,0 z M 132,121 l 11,0 0,11 -11,0 z M 165,121 l 11,0 0,11 -11,0 z M 198,121 l 11,0 0,11 -11,0 z M 220,121 l 11,0 0,11 -11,0 z M 231,121 l 11,0 0,11 -11,0 z M 264,121 l 11,0 0,11 -11,0 z M 308,121 l 11,0 0,11 -11,0 z M 0,132 l 11,0 0,11 -11,0 z M 11,132 l 11,0 0,11 -11,0 z M 33,132 l 11,0 0,11 -11,0 z M 44,132 l 11,0 0,11 -11,0 z M 66,132 l 11,0 0,11 -11,0 z M 77,132 l 11,0 0,11 -11,0 z M 99,132 l 11,0 0,11 -11,0 z M 110,132 l 11,0 0,11 -11,0 z M 132,132 l 11,0 0,11 -11,0 z M 143,132 l 11,0 0,11 -11,0 z M 154,132 l 11,0 0,11 -11,0 z M 165,132 l 11,0 0,11 -11,0 z M 187,132 l 11,0 0,11 -11,0 z M 198,132 l 11,0 0,11 -11,0 z M 275,132 l 11,0 0,11 -11,0 z M 286,132 l 11,0 0,11 -11,0 z M 0,143 l 11,0 0,11 -11,0 z M 11,143 l 11,0 0,11 -11,0 z M 22,143 l 11,0 0,11 -11,0 z M 55,143 l 11,0 0,11 -11,0 z M 88,143 l 11,0 0,11 -11,0 z M 99,143 l 11,0 0,11 -11,0 z M 165,143 l 11,0 0,11 -11,0 z M 198,143 l 11,0 0,11 -11,0 z M 209,143 l 11,0 0,11 -11,0 z M 220,143 l 11,0 0,11 -11,0 z M 264,143 l 11,0 0,11 -11,0 z M 308,143 l 11,0 0,11 -11,0 z M 0,154 l 11,0 0,11 -11,0 z M 33,154 l 11,0 0,11 -11,0 z M 66,154 l 11,0 0,11 -11,0 z M 77,154 l 11,0 0,11 -11,0 z M 99,154 l 11,0 0,11 -11,0 z M 110,154 l 11,0 0,11 -11,0 z M 121,154 l 11,0 0,11 -11,0 z M 132,154 l 11,0 0,11 -11,0 z M 198,154 l 11,0 0,11 -11,0 z M 209,154 l 11,0 0,11 -11,0 z M 231,154 l 11,0 0,11 -11,0 z M 253,154 l 11,0 0,11 -11,0 z M 264,154 l 11,0 0,11 -11,0 z M 275,154 l 11,0 0,11 -11,0 z M 286,154 l 11,0 0,11 -11,0 z M 297,154 l 11,0 0,11 -11,0 z M 0,165 l 11,0 0,11 -11,0 z M 11,165 l 11,0 0,11 -11,0 z M 44,165 l 11,0 0,11 -11,0 z M 99,165 l 11,0 0,11 -11,0 z M 121,165 l 11,0 0,11 -11,0 z M 198,165 l 11,0 0,11 -11,0 z M 231,165 l 11,0 0,11 -11,0 z M 242,165 l 11,0 0,11 -11,0 z M 264,165 l 11,0 0,11 -11,0 z M 275,165 l 11,0 0,11 -11,0 z M 297,165 l 11,0 0,11 -11,0 z M 0,176 l 11,0 0,11 -11,0 z M 22,176 l 11,0 0,11 -11,0 z M 55,176 l 11,0 0,11 -11,0 z M 66,176 l 11,0 0,11 -11,0 z M 88,176 l 11,0 0,11 -11,0 z M 99,176 l 11,0 0,11 -11,0 z M 110,176 l 11,0 0,11 -11,0 z M 121,176 l 11,0 0,11 -11,0 z M 165,176 l 11,0 0,11 -11,0 z M 176,176 l 11,0 0,11 -11,0 z M 187,176 l 11,0 0,11 -11,0 z M 231,176 l 11,0 0,11 -11,0 z M 253,176 l 11,0 0,11 -11,0 z M 264,176 l 11,0 0,11 -11,0 z M 286,176 l 11,0 0,11 -11,0 z M 297,176 l 11,0 0,11 -11,0 z M 308,176 l 11,0 0,11 -11,0 z M 0,187 l 11,0 0,11 -11,0 z M 11,187 l 11,0 0,11 -11,0 z M 33,187 l 11,0 0,11 -11,0 z M 88,187 l 11,0 0,11 -11,0 z M 132,187 l 11,0 0,11 -11,0 z M 143,187 l 11,0 0,11 -11,0 z M 176,187 l 11,0 0,11 -11,0 z M 187,187 l 11,0 0,11 -11,0 z M 220,187 l 11,0 0,11 -11,0 z M 264,187 l 11,0 0,11 -11,0 z M 275,187 l 11,0 0,11 -11,0 z M 308,187 l 11,0 0,11 -11,0 z M 0,198 l 11,0 0,11 -11,0 z M 55,198 l 11,0 0,11 -11,0 z M 66,198 l 11,0 0,11 -11,0 z M 88,198 l 11,0 0,11 -11,0 z M 110,198 l 11,0 0,11 -11,0 z M 143,198 l 11,0 0,11 -11,0 z M 154,198 l 11,0 0,11 -11,0 z M 209,198 l 11,0 0,11 -11,0 z M 231,198 l 11,0 0,11 -11,0 z M 253,198 l 11,0 0,11 -11,0 z M 0,209 l 11,0 0,11 -11,0 z M 22,209 l 11,0 0,11 -11,0 z M 44,209 l 11,0 0,11 -11,0 z M 55,209 l 11,0 0,11 -11,0 z M 99,209 l 11,0 0,11 -11,0 z M 110,209 l 11,0 0,11 -11,0 z M 132,209 l 11,0 0,11 -11,0 z M 143,209 l 11,0 0,11 -11,0 z M 165,209 l 11,0 0,11 -11,0 z M 176,209 l 11,0 0,11 -11,0 z M 220,209 l 11,0 0,11 -11,0 z M 231,209 l 11,0 0,11 -11,0 z M 264,209 l 11,0 0,11 -11,0 z M 275,209 l 11,0 0,11 -11,0 z M 297,209 l 11,0 0,11 -11,0 z M 0,220 l 11,0 0,11 -11,0 z M 44,220 l 11,0 0,11 -11,0 z M 66,220 l 11,0 0,11 -11,0 z M 77,220 l 11,0 0,11 -11,0 z M 88,220 l 11,0 0,11 -11,0 z M 110,220 l 11,0 0,11 -11,0 z M 132,220 l 11,0 0,11 -11,0 z M 154,220 l 11,0 0,11 -11,0 z M 176,220 l 11,0 0,11 -11,0 z M 187,220 l 11,0 0,11 -11,0 z M 209,220 l 11,0 0,11 -11,0 z M 220,220 l 11,0 0,11 -11,0 z M 231,220 l 11,0 0,11 -11,0 z M 242,220 l 11,0 0,11 -11,0 z M 253,220 l 11,0 0,11 -11,0 z M 264,220 l 11,0 0,11 -11,0 z M 297,220 l 11,0 0,11 -11,0 z M 88,231 l 11,0 0,11 -11,0 z M 165,231 l 11,0 0,11 -11,0 z M 187,231 l 11,0 0,11 -11,0 z M 220,231 l 11,0 0,11 -11,0 z M 264,231 l 11,0 0,11 -11,0 z M 308,231 l 11,0 0,11 -11,0 z M 0,242 l 11,0 0,11 -11,0 z M 11,242 l 11,0 0,11 -11,0 z M 22,242 l 11,0 0,11 -11,0 z M 33,242 l 11,0 0,11 -11,0 z M 44,242 l 11,0 0,11 -11,0 z M 55,242 l 11,0 0,11 -11,0 z M 66,242 l 11,0 0,11 -11,0 z M 88,242 l 11,0 0,11 -11,0 z M 121,242 l 11,0 0,11 -11,0 z M 132,242 l 11,0 0,11 -11,0 z M 176,242 l 11,0 0,11 -11,0 z M 220,242 l 11,0 0,11 -11,0 z M 242,242 l 11,0 0,11 -11,0 z M 264,242 l 11,0 0,11 -11,0 z M 297,242 l 11,0 0,11 -11,0 z M 0,253 l 11,0 0,11 -11,0 z M 66,253 l 11,0 0,11 -11,0 z M 99,253 l 11,0 0,11 -11,0 z M 121,253 l 11,0 0,11 -11,0 z M 154,253 l 11,0 0,11 -11,0 z M 165,253 l 11,0 0,11 -11,0 z M 176,253 l 11,0 0,11 -11,0 z M 209,253 l 11,0 0,11 -11,0 z M 220,253 l 11,0 0,11 -11,0 z M 264,253 l 11,0 0,11 -11,0 z M 297,253 l 11,0 0,11 -11,0 z M 308,253 l 11,0 0,11 -11,0 z M 0,264 l 11,0 0,11 -11,0 z M 22,264 l 11,0 0,11 -11,0 z M 33,264 l 11,0 0,11 -11,0 z M 44,264 l 11,0 0,11 -11,0 z M 66,264 l 11,0 0,11 -11,0 z M 88,264 l 11,0 0,11 -11,0 z M 110,264 l 11,0 0,11 -11,0 z M 121,264 l 11,0 0,11 -11,0 z M 176,264 l 11,0 0,11 -11,0 z M 209,264 l 11,0 0,11 -11,0 z M 220,264 l 11,0 0,11 -11,0 z M 231,264 l 11,0 0,11 -11,0 z M 242,264 l 11,0 0,11 -11,0 z M 253,264 l 11,0 0,11 -11,0 z M 264,264 l 11,0 0,11 -11,0 z M 275,264 l 11,0 0,11 -11,0 z M 0,275 l 11,0 0,11 -11,0 z M 22,275 l 11,0 0,11 -11,0 z M 33,275 l 11,0 0,11 -11,0 z M 44,275 l 11,0 0,11 -11,0 z M 66,275 l 11,0 0,11 -11,0 z M 88,275 l 11,0 0,11 -11,0 z M 132,275 l 11,0 0,11 -11,0 z M 143,275 l 11,0 0,11 -11,0 z M 154,275 l 11,0 0,11 -11,0 z M 176,275 l 11,0 0,11 -11,0 z M 198,275 l 11,0 0,11 -11,0 z M 231,275 l 11,0 0,11 -11,0 z M 264,275 l 11,0 0,11 -11,0 z M 297,275 l 11,0 0,11 -11,0 z M 0,286 l 11,0 0,11 -11,0 z M 22,286 l 11,0 0,11 -11,0 z M 33,286 l 11,0 0,11 -11,0 z M 44,286 l 11,0 0,11 -11,0 z M 66,286 l 11,0 0,11 -11,0 z M 88,286 l 11,0 0,11 -11,0 z M 110,286 l 11,0 0,11 -11,0 z M 143,286 l 11,0 0,11 -11,0 z M 154,286 l 11,0 0,11 -11,0 z M 165,286 l 11,0 0,11 -11,0 z M 176,286 l 11,0 0,11 -11,0 z M 264,286 l 11,0 0,11 -11,0 z M 275,286 l 11,0 0,11 -11,0 z M 286,286 l 11,0 0,11 -11,0 z M 297,286 l 11,0 0,11 -11,0 z M 0,297 l 11,0 0,11 -11,0 z M 66,297 l 11,0 0,11 -11,0 z M 88,297 l 11,0 0,11 -11,0 z M 99,297 l 11,0 0,11 -11,0 z M 132,297 l 11,0 0,11 -11,0 z M 143,297 l 11,0 0,11 -11,0 z M 176,297 l 11,0 0,11 -11,0 z M 187,297 l 11,0 0,11 -11,0 z M 198,297 l 11,0 0,11 -11,0 z M 209,297 l 11,0 0,11 -11,0 z M 231,297 l 11,0 0,11 -11,0 z M 286,297 l 11,0 0,11 -11,0 z M 297,297 l 11,0 0,11 -11,0 z M 0,308 l 11,0 0,11 -11,0 z M 11,308 l 11,0 0,11 -11,0 z M 22,308 l 11,0 0,11 -11,0 z M 33,308 l 11,0 0,11 -11,0 z M 44,308 l 11,0 0,11 -11,0 z M 55,308 l 11,0 0,11 -11,0 z M 66,308 l 11,0 0,11 -11,0 z M 88,308 l 11,0 0,11 -11,0 z M 99,308 l 11,0 0,11 -11,0 z M 110,308 l 11,0 0,11 -11,0 z M 132,308 l 11,0 0,11 -11,0 z M 154,308 l 11,0 0,11 -11,0 z M 165,308 l 11,0 0,11 -11,0 z M 187,308 l 11,0 0,11 -11,0 z M 220,308 l 11,0 0,11 -11,0 z M 264,308 l 11,0 0,11 -11,0 z M 275,308 l 11,0 0,11 -11,0 z " />
	</g>
</svg>
